<svg width="1200" height="500" viewBox="0 0 1200 500" xmlns="http://www.w3.org/2000/svg" role="img" aria-label="Booking system illustration">
  <rect width="1200" height="500" rx="26" fill="#ffffff"/>
  <rect x="40" y="48" width="1120" height="404" rx="22" fill="#f8fafc" stroke="#e4e7ec"/>

  <rect x="92" y="102" width="290" height="296" rx="18" fill="#ffffff" stroke="#e4e7ec"/>
  <rect x="130" y="146" width="214" height="28" rx="14" fill="#111827"/>
  <rect x="130" y="194" width="180" height="18" rx="9" fill="#94a3b8"/>
  <rect x="130" y="226" width="200" height="18" rx="9" fill="#cbd5e1"/>
  <rect x="130" y="258" width="166" height="18" rx="9" fill="#94a3b8"/>
  <rect x="130" y="312" width="120" height="34" rx="17" fill="#e11d48"/>

  <rect x="455" y="102" width="290" height="296" rx="18" fill="#111827"/>
  <circle cx="600" cy="186" r="52" fill="#e11d48"/>
  <rect x="520" y="274" width="160" height="18" rx="9" fill="#e2e8f0"/>
  <rect x="544" y="304" width="112" height="14" rx="7" fill="#94a3b8"/>

  <rect x="818" y="102" width="290" height="296" rx="18" fill="#ffffff" stroke="#e4e7ec"/>
  <rect x="860" y="148" width="206" height="26" rx="13" fill="#111827"/>
  <rect x="860" y="194" width="180" height="16" rx="8" fill="#94a3b8"/>
  <rect x="860" y="224" width="150" height="16" rx="8" fill="#cbd5e1"/>
  <rect x="860" y="286" width="172" height="84" rx="14" fill="#f8fafc" stroke="#e4e7ec"/>
  <path d="M905 334l16 16 30-36" fill="none" stroke="#e11d48" stroke-width="8" stroke-linecap="round" stroke-linejoin="round"/>

  <g fill="#e11d48">
    <path d="M393 244h36l-14-10v20z"/>
    <path d="M756 244h36l-14-10v20z"/>
  </g>
</svg>
