<svg width="1300" height="420" viewBox="0 0 1300 420" xmlns="http://www.w3.org/2000/svg" role="img" aria-label="Benefits illustration">
  <rect width="1300" height="420" rx="24" fill="#ffffff"/>
  <rect x="42" y="42" width="1216" height="336" rx="20" fill="#f7f8fa" stroke="#e3e6ec"/>

  <rect x="90" y="92" width="520" height="236" rx="20" fill="#111319"/>
  <rect x="690" y="92" width="520" height="236" rx="20" fill="#ffffff" stroke="#e3e6ec"/>

  <g fill="#fff">
    <circle cx="148" cy="140" r="8" fill="#d91f1f"/>
    <rect x="168" y="132" width="370" height="14" rx="7"/>

    <circle cx="148" cy="186" r="8" fill="#d91f1f"/>
    <rect x="168" y="178" width="320" height="14" rx="7"/>

    <circle cx="148" cy="232" r="8" fill="#d91f1f"/>
    <rect x="168" y="224" width="350" height="14" rx="7"/>

    <circle cx="148" cy="278" r="8" fill="#d91f1f"/>
    <rect x="168" y="270" width="300" height="14" rx="7"/>
  </g>

  <g fill="#111319">
    <circle cx="748" cy="140" r="8" fill="#d91f1f"/>
    <rect x="768" y="132" width="370" height="14" rx="7"/>

    <circle cx="748" cy="186" r="8" fill="#d91f1f"/>
    <rect x="768" y="178" width="280" height="14" rx="7"/>

    <circle cx="748" cy="232" r="8" fill="#d91f1f"/>
    <rect x="768" y="224" width="320" height="14" rx="7"/>

    <circle cx="748" cy="278" r="8" fill="#d91f1f"/>
    <rect x="768" y="270" width="290" height="14" rx="7"/>
  </g>

  <circle cx="650" cy="210" r="42" fill="#d91f1f"/>
  <path d="M633 211l12 12 22-26" fill="none" stroke="#fff" stroke-width="8" stroke-linecap="round" stroke-linejoin="round"/>
</svg>
