<svg width="960" height="420" viewBox="0 0 960 420" xmlns="http://www.w3.org/2000/svg" role="img" aria-label="Benefits illustration">
  <rect width="960" height="420" rx="24" fill="#ffffff"/>
  <rect x="80" y="70" width="360" height="280" rx="20" fill="#111827"/>
  <rect x="520" y="70" width="360" height="280" rx="20" fill="#f8fafc" stroke="#d1d5db"/>
  <g fill="#fff">
    <circle cx="140" cy="130" r="10" fill="#E21B1B"/>
    <rect x="170" y="122" width="230" height="16" rx="8"/>
    <circle cx="140" cy="190" r="10" fill="#E21B1B"/>
    <rect x="170" y="182" width="210" height="16" rx="8"/>
    <circle cx="140" cy="250" r="10" fill="#E21B1B"/>
    <rect x="170" y="242" width="250" height="16" rx="8"/>
  </g>
  <g fill="#111827">
    <circle cx="580" cy="130" r="10" fill="#E21B1B"/>
    <rect x="610" y="122" width="220" height="16" rx="8"/>
    <circle cx="580" cy="190" r="10" fill="#E21B1B"/>
    <rect x="610" y="182" width="210" height="16" rx="8"/>
    <circle cx="580" cy="250" r="10" fill="#E21B1B"/>
    <rect x="610" y="242" width="230" height="16" rx="8"/>
  </g>
  <circle cx="480" cy="210" r="40" fill="#E21B1B"/>
  <path d="M468 210l10 10 16-20" fill="none" stroke="#fff" stroke-width="6" stroke-linecap="round" stroke-linejoin="round"/>
</svg>
