<svg width="960" height="640" viewBox="0 0 960 640" xmlns="http://www.w3.org/2000/svg" role="img" aria-label="Management system overview illustration">
  <defs>
    <linearGradient id="bg" x1="0" y1="0" x2="1" y2="1">
      <stop offset="0" stop-color="#fff5f5"/>
      <stop offset="1" stop-color="#ffffff"/>
    </linearGradient>
  </defs>
  <rect width="960" height="640" rx="28" fill="url(#bg)"/>
  <rect x="80" y="80" width="520" height="470" rx="24" fill="#0f172a"/>
  <rect x="110" y="130" width="460" height="28" rx="14" fill="#1f2937"/>
  <rect x="110" y="190" width="210" height="140" rx="18" fill="#111827" stroke="#E21B1B" stroke-width="2"/>
  <rect x="340" y="190" width="230" height="80" rx="18" fill="#1f2937"/>
  <rect x="340" y="286" width="230" height="184" rx="18" fill="#111827"/>
  <circle cx="214" cy="260" r="44" fill="#E21B1B" opacity="0.9"/>
  <rect x="146" y="360" width="142" height="22" rx="11" fill="#E5E7EB" opacity="0.85"/>
  <rect x="146" y="396" width="122" height="18" rx="9" fill="#CBD5E1" opacity="0.8"/>
  <rect x="370" y="315" width="170" height="14" rx="7" fill="#E5E7EB"/>
  <rect x="370" y="341" width="130" height="14" rx="7" fill="#CBD5E1"/>
  <rect x="370" y="367" width="160" height="14" rx="7" fill="#E5E7EB"/>
  <rect x="650" y="130" width="230" height="120" rx="20" fill="#ffffff" stroke="#E5E7EB"/>
  <rect x="650" y="275" width="230" height="120" rx="20" fill="#ffffff" stroke="#E5E7EB"/>
  <rect x="650" y="420" width="230" height="120" rx="20" fill="#ffffff" stroke="#E5E7EB"/>
  <circle cx="700" cy="190" r="22" fill="#E21B1B"/>
  <circle cx="700" cy="335" r="22" fill="#111827"/>
  <circle cx="700" cy="480" r="22" fill="#F59E0B"/>
  <rect x="738" y="175" width="118" height="14" rx="7" fill="#111827"/>
  <rect x="738" y="320" width="118" height="14" rx="7" fill="#111827"/>
  <rect x="738" y="465" width="118" height="14" rx="7" fill="#111827"/>
</svg>
