<svg width="1300" height="520" viewBox="0 0 1300 520" xmlns="http://www.w3.org/2000/svg" role="img" aria-label="Photography workflow illustration">
  <rect width="1300" height="520" rx="28" fill="#ffffff"/>
  <rect x="40" y="90" width="1220" height="340" rx="24" fill="#f7f8fa" stroke="#e3e6ec"/>

  <g>
    <rect x="80" y="150" width="220" height="220" rx="22" fill="#fff" stroke="#e3e6ec"/>
    <circle cx="190" cy="212" r="48" fill="#d91f1f" opacity="0.95"/>
    <rect x="124" y="289" width="132" height="16" rx="8" fill="#181c24"/>
    <rect x="138" y="316" width="104" height="12" rx="6" fill="#5f6672"/>
  </g>

  <g>
    <rect x="370" y="150" width="220" height="220" rx="22" fill="#fff" stroke="#e3e6ec"/>
    <rect x="420" y="186" width="120" height="72" rx="14" fill="#181c24"/>
    <rect x="406" y="280" width="148" height="16" rx="8" fill="#d91f1f"/>
    <rect x="432" y="306" width="96" height="12" rx="6" fill="#5f6672"/>
  </g>

  <g>
    <rect x="660" y="150" width="220" height="220" rx="22" fill="#fff" stroke="#e3e6ec"/>
    <rect x="720" y="180" width="98" height="98" rx="14" fill="#111319"/>
    <path d="M749 228h40M769 208v40" stroke="#fff" stroke-width="7" stroke-linecap="round"/>
    <rect x="702" y="305" width="136" height="12" rx="6" fill="#5f6672"/>
  </g>

  <g>
    <rect x="950" y="150" width="220" height="220" rx="22" fill="#fff" stroke="#e3e6ec"/>
    <rect x="994" y="188" width="132" height="84" rx="12" fill="#181c24"/>
    <circle cx="1060" cy="230" r="20" fill="#d91f1f"/>
    <rect x="994" y="302" width="132" height="14" rx="7" fill="#5f6672"/>
  </g>

  <g fill="#d91f1f">
    <path d="M322 248h28l-11 -9v18z"/>
    <path d="M612 248h28l-11 -9v18z"/>
    <path d="M902 248h28l-11 -9v18z"/>
  </g>
</svg>
