<svg width="960" height="420" viewBox="0 0 960 420" xmlns="http://www.w3.org/2000/svg" role="img" aria-label="Workflow diagram illustration">
  <rect width="960" height="420" rx="24" fill="#ffffff"/>
  <g font-family="Arial" font-size="18" fill="#111827" font-weight="700" text-anchor="middle">
    <rect x="40" y="150" width="160" height="120" rx="18" fill="#fff1f1" stroke="#E21B1B"/>
    <text x="120" y="205">Client</text>
    <text x="120" y="232">Booking</text>

    <rect x="230" y="150" width="160" height="120" rx="18" fill="#f8fafc" stroke="#d1d5db"/>
    <text x="310" y="205">Admin</text>
    <text x="310" y="232">Approval</text>

    <rect x="420" y="150" width="160" height="120" rx="18" fill="#fff7ed" stroke="#f59e0b"/>
    <text x="500" y="205">Advance</text>
    <text x="500" y="232">Payment</text>

    <rect x="610" y="150" width="160" height="120" rx="18" fill="#eef2ff" stroke="#6366f1"/>
    <text x="690" y="205">Invoice</text>
    <text x="690" y="232">Generated</text>

    <rect x="800" y="150" width="120" height="120" rx="18" fill="#ecfdf5" stroke="#22c55e"/>
    <text x="860" y="205">Photo</text>
    <text x="860" y="232">Delivery</text>
  </g>

  <g stroke="#111827" stroke-width="4" fill="none" stroke-linecap="round">
    <path d="M205 210h20"/>
    <path d="M395 210h20"/>
    <path d="M585 210h20"/>
    <path d="M775 210h20"/>
  </g>
  <g fill="#111827">
    <path d="M224 203l10 7-10 7z"/>
    <path d="M414 203l10 7-10 7z"/>
    <path d="M604 203l10 7-10 7z"/>
    <path d="M794 203l10 7-10 7z"/>
  </g>
</svg>
